<?xml version="1.0" encoding="UTF-8" standalone="no"?>
<svg width="9px" height="11px" viewBox="0 0 9 11" version="1.1" xmlns="http://www.w3.org/2000/svg" xmlns:xlink="http://www.w3.org/1999/xlink" xmlns:sketch="http://www.bohemiancoding.com/sketch/ns">
    <!-- Generator: Sketch 3.5.2 (25235) - http://www.bohemiancoding.com/sketch -->
    <title>file-picture</title>
    <desc>Created with Sketch.</desc>
    <defs></defs>
    <g id="Page-1" stroke="none" stroke-width="1" fill="none" fill-rule="evenodd" sketch:type="MSPage">
        <g id="Mobile-(New-Colors)" sketch:type="MSArtboardGroup" transform="translate(-278.000000, -349.000000)" fill="#27A9E0">
            <g id="event" sketch:type="MSLayerGroup" transform="translate(0.000000, 321.000000)">
                <g id="file-picture" transform="translate(278.000000, 28.000000)" sketch:type="MSShapeGroup">
                    <g id="Group">
                        <path d="M7.71428571,9.625 L1.28571429,9.625 L1.28571429,8.25 L3.21428571,4.8125 L5.85578571,8.25 L7.71428571,6.875 L7.71428571,9.625 L7.71428571,9.625 Z" id="Shape"></path>
                        <path d="M7.71428571,5.15625 C7.71428571,5.7255 7.28228571,6.1875 6.75,6.1875 C6.21771429,6.1875 5.78571429,5.7255 5.78571429,5.15625 C5.78571429,4.587 6.21771429,4.125 6.75,4.125 C7.28228571,4.125 7.71428571,4.587 7.71428571,5.15625 L7.71428571,5.15625 Z" id="Shape"></path>
                        <path d="M8.57635714,2.4605625 C8.35328571,2.135375 8.04214286,1.7545 7.70078571,1.3894375 C7.35942857,1.024375 7.00328571,0.691625 6.69921429,0.4530625 C6.18107143,0.04675 5.92971429,0 5.78571429,0 L0.803571429,0 C0.360642857,0 0,0.3856875 0,0.859375 L0,10.140625 C0,10.6143125 0.360642857,11 0.803571429,11 L8.19642857,11 C8.63935714,11 9,10.6143125 9,10.140625 L9,3.4375 C9,3.2835 8.95628571,3.0146875 8.57635714,2.4605625 L8.57635714,2.4605625 Z M7.24564286,1.8761875 C7.55421429,2.2061875 7.79592857,2.5031875 7.97464286,2.75 L6.42792857,2.75 L6.42792857,1.0965625 C6.65871429,1.2876875 6.93707143,1.5461875 7.245,1.8761875 L7.24564286,1.8761875 Z M8.35714286,10.140625 C8.35714286,10.234125 8.28385714,10.3125 8.19642857,10.3125 L0.803571429,10.3125 C0.716785714,10.3125 0.642857143,10.234125 0.642857143,10.140625 L0.642857143,0.859375 C0.642857143,0.7665625 0.716785714,0.6875 0.803571429,0.6875 L5.78571429,0.6875 L5.78571429,3.09375 C5.78571429,3.2835 5.92971429,3.4375 6.10714286,3.4375 L8.35714286,3.4375 L8.35714286,10.140625 L8.35714286,10.140625 Z" id="Shape"></path>
                    </g>
                </g>
            </g>
        </g>
    </g>
</svg>